<mxfile host="app.diagrams.net" modified="2024-04-01T14:07:30.513Z" agent="Mozilla/5.0 (X11; Linux x86_64) AppleWebKit/537.36 (KHTML, like Gecko) Chrome/122.0.0.0 Safari/537.36" etag="FMq1cjt_a3-RADFVMcwS" version="24.2.1" type="github">
  <diagram name="第 1 页" id="xstOrmK0gMsPSlwsuOtR">
    <mxGraphModel dx="1169" dy="526" grid="1" gridSize="10" guides="1" tooltips="1" connect="1" arrows="1" fold="1" page="1" pageScale="1" pageWidth="827" pageHeight="1169" background="none" math="0" shadow="0">
      <root>
        <mxCell id="0" />
        <mxCell id="1" parent="0" />
        <mxCell id="pPIaZaaBXHAT7sERCjPp-39" value="" style="rounded=0;whiteSpace=wrap;html=1;" vertex="1" parent="1">
          <mxGeometry x="590" y="40" width="190" height="400" as="geometry" />
        </mxCell>
        <mxCell id="pPIaZaaBXHAT7sERCjPp-10" value="" style="rounded=0;whiteSpace=wrap;html=1;movable=1;resizable=1;rotatable=1;deletable=1;editable=1;locked=0;connectable=1;glass=0;shadow=0;fillColor=default;" vertex="1" parent="1">
          <mxGeometry x="110" y="190" width="340" height="100" as="geometry" />
        </mxCell>
        <mxCell id="pPIaZaaBXHAT7sERCjPp-1" value="" style="rounded=1;whiteSpace=wrap;html=1;movable=1;resizable=1;rotatable=1;deletable=1;editable=1;locked=0;connectable=1;" vertex="1" parent="1">
          <mxGeometry x="170" y="40" width="210" height="110" as="geometry" />
        </mxCell>
        <mxCell id="pPIaZaaBXHAT7sERCjPp-22" style="edgeStyle=orthogonalEdgeStyle;rounded=0;orthogonalLoop=1;jettySize=auto;html=1;exitX=0.5;exitY=1;exitDx=0;exitDy=0;" edge="1" parent="1" source="pPIaZaaBXHAT7sERCjPp-5">
          <mxGeometry relative="1" as="geometry">
            <mxPoint x="275" y="210" as="targetPoint" />
          </mxGeometry>
        </mxCell>
        <mxCell id="pPIaZaaBXHAT7sERCjPp-5" value="&lt;font style=&quot;font-size: 14px;&quot;&gt;线程&lt;/font&gt;" style="rounded=0;whiteSpace=wrap;html=1;movable=1;resizable=1;rotatable=1;deletable=1;editable=1;locked=0;connectable=1;" vertex="1" parent="1">
          <mxGeometry x="215" y="80" width="120" height="60" as="geometry" />
        </mxCell>
        <mxCell id="pPIaZaaBXHAT7sERCjPp-6" value="" style="rounded=1;whiteSpace=wrap;html=1;movable=0;resizable=0;rotatable=0;deletable=0;editable=0;locked=1;connectable=0;" vertex="1" parent="1">
          <mxGeometry x="170" y="330" width="210" height="110" as="geometry" />
        </mxCell>
        <mxCell id="pPIaZaaBXHAT7sERCjPp-24" style="edgeStyle=orthogonalEdgeStyle;rounded=0;orthogonalLoop=1;jettySize=auto;html=1;exitX=0.5;exitY=0;exitDx=0;exitDy=0;entryX=0.5;entryY=1;entryDx=0;entryDy=0;" edge="1" parent="1" source="pPIaZaaBXHAT7sERCjPp-7" target="pPIaZaaBXHAT7sERCjPp-13">
          <mxGeometry relative="1" as="geometry" />
        </mxCell>
        <mxCell id="pPIaZaaBXHAT7sERCjPp-7" value="&lt;font style=&quot;font-size: 14px;&quot;&gt;线程&lt;/font&gt;" style="rounded=0;whiteSpace=wrap;html=1;movable=1;resizable=1;rotatable=1;deletable=1;editable=1;locked=0;connectable=1;" vertex="1" parent="1">
          <mxGeometry x="215" y="340" width="120" height="60" as="geometry" />
        </mxCell>
        <mxCell id="pPIaZaaBXHAT7sERCjPp-8" value="&lt;font style=&quot;font-size: 14px;&quot;&gt;进程1&lt;/font&gt;" style="text;html=1;align=center;verticalAlign=middle;whiteSpace=wrap;rounded=0;movable=1;resizable=1;rotatable=1;deletable=1;editable=1;locked=0;connectable=1;" vertex="1" parent="1">
          <mxGeometry x="245" y="50" width="60" height="30" as="geometry" />
        </mxCell>
        <mxCell id="pPIaZaaBXHAT7sERCjPp-9" value="&lt;font style=&quot;font-size: 14px;&quot;&gt;进程2&lt;/font&gt;" style="text;html=1;align=center;verticalAlign=middle;whiteSpace=wrap;rounded=0;movable=1;resizable=1;rotatable=1;deletable=1;editable=1;locked=0;connectable=1;" vertex="1" parent="1">
          <mxGeometry x="245" y="410" width="60" height="30" as="geometry" />
        </mxCell>
        <mxCell id="pPIaZaaBXHAT7sERCjPp-21" style="edgeStyle=orthogonalEdgeStyle;rounded=0;orthogonalLoop=1;jettySize=auto;html=1;exitX=0.5;exitY=0;exitDx=0;exitDy=0;entryX=0.5;entryY=1;entryDx=0;entryDy=0;" edge="1" parent="1" source="pPIaZaaBXHAT7sERCjPp-13" target="pPIaZaaBXHAT7sERCjPp-5">
          <mxGeometry relative="1" as="geometry" />
        </mxCell>
        <mxCell id="pPIaZaaBXHAT7sERCjPp-23" style="edgeStyle=orthogonalEdgeStyle;rounded=0;orthogonalLoop=1;jettySize=auto;html=1;exitX=0.5;exitY=1;exitDx=0;exitDy=0;entryX=0.5;entryY=0;entryDx=0;entryDy=0;" edge="1" parent="1" source="pPIaZaaBXHAT7sERCjPp-13" target="pPIaZaaBXHAT7sERCjPp-7">
          <mxGeometry relative="1" as="geometry">
            <mxPoint x="275" y="370" as="targetPoint" />
          </mxGeometry>
        </mxCell>
        <mxCell id="pPIaZaaBXHAT7sERCjPp-13" value="&lt;font style=&quot;font-size: 14px;&quot;&gt;进程间通信&lt;/font&gt;" style="rounded=1;whiteSpace=wrap;html=1;movable=1;resizable=1;rotatable=1;deletable=1;editable=1;locked=0;connectable=1;" vertex="1" parent="1">
          <mxGeometry x="215" y="210" width="120" height="60" as="geometry" />
        </mxCell>
        <mxCell id="pPIaZaaBXHAT7sERCjPp-25" value="&lt;font style=&quot;font-size: 14px;&quot;&gt;操作系统&lt;/font&gt;" style="text;html=1;align=center;verticalAlign=middle;whiteSpace=wrap;rounded=0;" vertex="1" parent="1">
          <mxGeometry x="380" y="260" width="60" height="30" as="geometry" />
        </mxCell>
        <mxCell id="pPIaZaaBXHAT7sERCjPp-30" value="&lt;font style=&quot;font-size: 14px;&quot;&gt;进程&lt;/font&gt;" style="text;html=1;align=center;verticalAlign=middle;whiteSpace=wrap;rounded=0;" vertex="1" parent="1">
          <mxGeometry x="655" y="50" width="60" height="30" as="geometry" />
        </mxCell>
        <mxCell id="pPIaZaaBXHAT7sERCjPp-31" style="edgeStyle=orthogonalEdgeStyle;rounded=0;orthogonalLoop=1;jettySize=auto;html=1;exitX=0.5;exitY=1;exitDx=0;exitDy=0;" edge="1" parent="1" source="pPIaZaaBXHAT7sERCjPp-27" target="pPIaZaaBXHAT7sERCjPp-27">
          <mxGeometry relative="1" as="geometry" />
        </mxCell>
        <mxCell id="pPIaZaaBXHAT7sERCjPp-35" style="edgeStyle=orthogonalEdgeStyle;rounded=0;orthogonalLoop=1;jettySize=auto;html=1;exitX=0.5;exitY=1;exitDx=0;exitDy=0;entryX=0.5;entryY=0;entryDx=0;entryDy=0;" edge="1" parent="1" source="pPIaZaaBXHAT7sERCjPp-27" target="pPIaZaaBXHAT7sERCjPp-29">
          <mxGeometry relative="1" as="geometry" />
        </mxCell>
        <mxCell id="pPIaZaaBXHAT7sERCjPp-27" value="&lt;font style=&quot;font-size: 14px;&quot;&gt;线程1&lt;/font&gt;" style="rounded=0;whiteSpace=wrap;html=1;" vertex="1" parent="1">
          <mxGeometry x="625" y="90" width="120" height="60" as="geometry" />
        </mxCell>
        <mxCell id="pPIaZaaBXHAT7sERCjPp-36" style="edgeStyle=orthogonalEdgeStyle;rounded=0;orthogonalLoop=1;jettySize=auto;html=1;exitX=0.5;exitY=0;exitDx=0;exitDy=0;entryX=0.5;entryY=1;entryDx=0;entryDy=0;" edge="1" parent="1" source="pPIaZaaBXHAT7sERCjPp-29" target="pPIaZaaBXHAT7sERCjPp-27">
          <mxGeometry relative="1" as="geometry" />
        </mxCell>
        <mxCell id="pPIaZaaBXHAT7sERCjPp-37" style="edgeStyle=orthogonalEdgeStyle;rounded=0;orthogonalLoop=1;jettySize=auto;html=1;exitX=0.5;exitY=1;exitDx=0;exitDy=0;entryX=0.5;entryY=0;entryDx=0;entryDy=0;" edge="1" parent="1" source="pPIaZaaBXHAT7sERCjPp-29" target="pPIaZaaBXHAT7sERCjPp-28">
          <mxGeometry relative="1" as="geometry" />
        </mxCell>
        <mxCell id="pPIaZaaBXHAT7sERCjPp-29" value="&lt;font style=&quot;font-size: 14px;&quot;&gt;共享内存&lt;/font&gt;" style="rounded=0;whiteSpace=wrap;html=1;" vertex="1" parent="1">
          <mxGeometry x="600" y="210" width="170" height="60" as="geometry" />
        </mxCell>
        <mxCell id="pPIaZaaBXHAT7sERCjPp-38" style="edgeStyle=orthogonalEdgeStyle;rounded=0;orthogonalLoop=1;jettySize=auto;html=1;exitX=0.5;exitY=0;exitDx=0;exitDy=0;entryX=0.5;entryY=1;entryDx=0;entryDy=0;" edge="1" parent="1" source="pPIaZaaBXHAT7sERCjPp-28" target="pPIaZaaBXHAT7sERCjPp-29">
          <mxGeometry relative="1" as="geometry" />
        </mxCell>
        <mxCell id="pPIaZaaBXHAT7sERCjPp-28" value="&lt;font style=&quot;font-size: 14px;&quot;&gt;线程2&lt;/font&gt;" style="rounded=0;whiteSpace=wrap;html=1;" vertex="1" parent="1">
          <mxGeometry x="625" y="340" width="120" height="60" as="geometry" />
        </mxCell>
        <mxCell id="pPIaZaaBXHAT7sERCjPp-33" style="edgeStyle=orthogonalEdgeStyle;rounded=0;orthogonalLoop=1;jettySize=auto;html=1;exitX=0.5;exitY=1;exitDx=0;exitDy=0;" edge="1" parent="1" source="pPIaZaaBXHAT7sERCjPp-27" target="pPIaZaaBXHAT7sERCjPp-27">
          <mxGeometry relative="1" as="geometry" />
        </mxCell>
        <mxCell id="pPIaZaaBXHAT7sERCjPp-40" value="&lt;font style=&quot;font-size: 14px;&quot;&gt;一对并发运行的进程间的通信&lt;/font&gt;" style="text;html=1;align=center;verticalAlign=middle;whiteSpace=wrap;rounded=0;" vertex="1" parent="1">
          <mxGeometry x="176.25" y="500" width="197.5" height="30" as="geometry" />
        </mxCell>
        <mxCell id="pPIaZaaBXHAT7sERCjPp-41" value="&lt;font style=&quot;font-size: 14px;&quot;&gt;同一进程中一对并发运行的线程间的通信&lt;/font&gt;" style="text;html=1;align=center;verticalAlign=middle;whiteSpace=wrap;rounded=0;" vertex="1" parent="1">
          <mxGeometry x="552.5" y="500" width="265" height="30" as="geometry" />
        </mxCell>
      </root>
    </mxGraphModel>
  </diagram>
</mxfile>
